<?xml version="1.0" encoding="UTF-8" standalone="no"?>
<svg width="100px" height="100px" viewBox="0 0 100 100" version="1.1" xmlns="http://www.w3.org/2000/svg" xmlns:xlink="http://www.w3.org/1999/xlink">
    <!-- Generator: Sketch 46 (44423) - http://www.bohemiancoding.com/sketch -->
    <title>Bloc_it</title>
    <desc>Created with Sketch.</desc>
    <defs></defs>
    <g id="Page-1" stroke="none" stroke-width="1" fill="none" fill-rule="evenodd">
        <g id="Desktop-Copy" transform="translate(-10.000000, -10.000000)">
            <g id="Bloc_it" transform="translate(10.000000, 10.000000)">
                <circle id="Oval" fill="#5193FE" cx="50" cy="50" r="50"></circle>
                <rect id="Paper-Shadow" fill="#4B81D9" x="26" y="28" width="50" height="60"></rect>
                <rect id="Paper" fill="#FFFFFF" x="25" y="26" width="50" height="60"></rect>
                <rect id="Jumbotron" fill="#D8D8D8" x="30" y="31" width="25" height="20" rx="3"></rect>
                <rect id="Neg-button" fill="#F56969" x="38" y="76" width="10" height="5" rx="2.5"></rect>
                <rect id="Pos-button" fill="#12EA95" x="55" y="76" width="10" height="5" rx="2.5"></rect>
                <g id="Group" transform="translate(30.000000, 33.000000)" fill="#959595">
                    <rect id="Rectangle-3" x="29" y="0" width="12" height="3" rx="1.5"></rect>
                    <rect id="Rectangle-3-Copy" x="29" y="7" width="12" height="3" rx="1.5"></rect>
                    <rect id="Rectangle-3-Copy-2" x="29" y="14" width="12" height="3" rx="1.5"></rect>
                    <rect id="Rectangle-3-Copy-3" x="0" y="22" width="41" height="3" rx="1.5"></rect>
                    <rect id="Rectangle-3-Copy-4" x="0" y="29" width="41" height="3" rx="1.5"></rect>
                    <rect id="Rectangle-3-Copy-5" x="0" y="36" width="41" height="3" rx="1.5"></rect>
                </g>
            </g>
        </g>
    </g>
</svg>