<?xml version="1.0" encoding="UTF-8" standalone="no"?>
<svg width="100px" height="100px" viewBox="0 0 100 100" version="1.1" xmlns="http://www.w3.org/2000/svg" xmlns:xlink="http://www.w3.org/1999/xlink">
    <!-- Generator: Sketch 46 (44423) - http://www.bohemiancoding.com/sketch -->
    <title>Radio jam</title>
    <desc>Created with Sketch.</desc>
    <defs></defs>
    <g id="Page-1" stroke="none" stroke-width="1" fill="none" fill-rule="evenodd">
        <g id="Desktop" transform="translate(-10.000000, -10.000000)">
            <g id="Radio-jam" transform="translate(10.000000, 10.000000)">
                <circle id="Oval" fill="#5193FE" cx="50" cy="50" r="50"></circle>
                <rect id="Antenna" fill="#E9DADA" transform="translate(45.892929, 29.682999) rotate(-25.000000) translate(-45.892929, -29.682999) " x="20.8929285" y="28.6829991" width="50" height="2"></rect>
                <rect id="Antenna-Shadow" fill="#D2C2C2" transform="translate(45.892929, 29.182999) rotate(-25.000000) translate(-45.892929, -29.182999) " x="20.8929285" y="28.6829991" width="50" height="1"></rect>
                <rect id="Radio-shadow" fill="#4981DD" x="16" y="42" width="70" height="35" rx="8"></rect>
                <rect id="Radio-body" fill="#FFD78C" x="15" y="39" width="70" height="35" rx="8"></rect>
                <g id="Stereo1" transform="translate(55.000000, 44.000000)">
                    <circle id="Oval-2" fill="#6B6B7C" cx="12.5" cy="12.5" r="12.5"></circle>
                    <ellipse id="Oval-2-Copy" fill="#8A8A9A" cx="12.5" cy="14" rx="11.5" ry="11"></ellipse>
                </g>
                <g id="Button-left" transform="translate(20.000000, 64.000000)">
                    <circle id="Oval-2" fill="#6B6B7C" cx="2.5" cy="2.5" r="2.5"></circle>
                    <ellipse id="Oval-2-Copy" fill="#8A8A9A" cx="2.5" cy="3" rx="2.5" ry="2"></ellipse>
                </g>
                <g id="Button-middle" transform="translate(30.000000, 64.000000)">
                    <circle id="Oval-2" fill="#6B6B7C" cx="2.5" cy="2.5" r="2.5"></circle>
                    <ellipse id="Oval-2-Copy" fill="#8A8A9A" cx="2.5" cy="3" rx="2.5" ry="2"></ellipse>
                </g>
                <g id="Button-right" transform="translate(40.000000, 64.000000)">
                    <circle id="Oval-2" fill="#6B6B7C" cx="2.5" cy="2.5" r="2.5"></circle>
                    <ellipse id="Oval-2-Copy" fill="#8A8A9A" cx="2.5" cy="3" rx="2.5" ry="2"></ellipse>
                </g>
                <rect id="Display-shadow" fill="#E9DADA" x="22" y="45" width="24" height="14" rx="5"></rect>
                <rect id="Display" fill="#FDF9F9" x="22" y="47" width="24" height="12" rx="5"></rect>
            </g>
        </g>
    </g>
</svg>